<?xml version="1.0" encoding="us-ascii" standalone="no"?><svg xmlns="http://www.w3.org/2000/svg" xmlns:xlink="http://www.w3.org/1999/xlink" contentStyleType="text/css" height="614px" preserveAspectRatio="none" style="width:811px;height:614px;background:#FFFFFF;" version="1.1" viewBox="0 0 811 614" width="811px" zoomAndPan="magnify"><defs/><g><text fill="#000000" font-family="sans-serif" font-size="14" font-weight="bold" lengthAdjust="spacing" textLength="353.4375" x="228.0313" y="29.5332">Fluxo de requisi&#231;&#227;o &#8212; Ambient, com Waypoint (L7)</text><rect fill="#FFFFFF" height="46.7031" style="stroke:#181818;stroke-width:1.0;" width="10" x="179" y="126.1797"/><rect fill="#FFFFFF" height="139.1094" style="stroke:#181818;stroke-width:1.0;" width="10" x="368" y="172.8828"/><rect fill="#FFFFFF" height="199.8125" style="stroke:#181818;stroke-width:1.0;" width="10" x="562" y="311.9922"/><rect fill="#FFFFFF" height="30.3516" style="stroke:#181818;stroke-width:1.0;" width="10" x="745" y="451.1016"/><line style="stroke:#181818;stroke-width:0.5;stroke-dasharray:5.0,5.0;" x1="51" x2="51" y1="93.8281" y2="560.1563"/><line style="stroke:#181818;stroke-width:0.5;stroke-dasharray:5.0,5.0;" x1="184" x2="184" y1="93.8281" y2="560.1563"/><line style="stroke:#181818;stroke-width:0.5;stroke-dasharray:5.0,5.0;" x1="372.5" x2="372.5" y1="93.8281" y2="560.1563"/><line style="stroke:#181818;stroke-width:0.5;stroke-dasharray:5.0,5.0;" x1="566.5" x2="566.5" y1="93.8281" y2="560.1563"/><line style="stroke:#181818;stroke-width:0.5;stroke-dasharray:5.0,5.0;" x1="749.5" x2="749.5" y1="93.8281" y2="560.1563"/><rect fill="#E2E2F0" height="49.2188" rx="2.5" ry="2.5" style="stroke:#181818;stroke-width:0.5;" width="92" x="5" y="43.6094"/><text fill="#000000" font-family="sans-serif" font-size="14" lengthAdjust="spacing" textLength="78" x="12" y="65.1426">payment-api</text><text fill="#000000" font-family="sans-serif" font-size="14" lengthAdjust="spacing" textLength="34" x="34" y="82.752">(app)</text><rect fill="#E2E2F0" height="49.2188" rx="2.5" ry="2.5" style="stroke:#181818;stroke-width:0.5;" width="92" x="5" y="559.1563"/><text fill="#000000" font-family="sans-serif" font-size="14" lengthAdjust="spacing" textLength="78" x="12" y="580.6895">payment-api</text><text fill="#000000" font-family="sans-serif" font-size="14" lengthAdjust="spacing" textLength="34" x="34" y="598.2988">(app)</text><rect fill="#E2E2F0" height="49.2188" rx="2.5" ry="2.5" style="stroke:#181818;stroke-width:0.5;" width="142" x="113" y="43.6094"/><text fill="#000000" font-family="sans-serif" font-size="14" lengthAdjust="spacing" textLength="45" x="161.5" y="65.1426">ztunnel</text><text fill="#000000" font-family="sans-serif" font-size="14" lengthAdjust="spacing" textLength="128" x="120" y="82.752">(n&#243; de payment-api)</text><rect fill="#E2E2F0" height="49.2188" rx="2.5" ry="2.5" style="stroke:#181818;stroke-width:0.5;" width="142" x="113" y="559.1563"/><text fill="#000000" font-family="sans-serif" font-size="14" lengthAdjust="spacing" textLength="45" x="161.5" y="580.6895">ztunnel</text><text fill="#000000" font-family="sans-serif" font-size="14" lengthAdjust="spacing" textLength="128" x="120" y="598.2988">(n&#243; de payment-api)</text><rect fill="#E2E2F0" height="49.2188" rx="2.5" ry="2.5" style="stroke:#181818;stroke-width:0.5;" width="107" x="319.5" y="43.6094"/><text fill="#000000" font-family="sans-serif" font-size="14" lengthAdjust="spacing" textLength="55" x="345.5" y="65.1426">waypoint</text><text fill="#000000" font-family="sans-serif" font-size="14" lengthAdjust="spacing" textLength="93" x="326.5" y="82.752">(payment-hub)</text><rect fill="#E2E2F0" height="49.2188" rx="2.5" ry="2.5" style="stroke:#181818;stroke-width:0.5;" width="107" x="319.5" y="559.1563"/><text fill="#000000" font-family="sans-serif" font-size="14" lengthAdjust="spacing" textLength="55" x="345.5" y="580.6895">waypoint</text><text fill="#000000" font-family="sans-serif" font-size="14" lengthAdjust="spacing" textLength="93" x="326.5" y="598.2988">(payment-hub)</text><rect fill="#E2E2F0" height="49.2188" rx="2.5" ry="2.5" style="stroke:#181818;stroke-width:0.5;" width="161" x="486.5" y="43.6094"/><text fill="#000000" font-family="sans-serif" font-size="14" lengthAdjust="spacing" textLength="45" x="544.5" y="65.1426">ztunnel</text><text fill="#000000" font-family="sans-serif" font-size="14" lengthAdjust="spacing" textLength="147" x="493.5" y="82.752">(n&#243; de payment-cache)</text><rect fill="#E2E2F0" height="49.2188" rx="2.5" ry="2.5" style="stroke:#181818;stroke-width:0.5;" width="161" x="486.5" y="559.1563"/><text fill="#000000" font-family="sans-serif" font-size="14" lengthAdjust="spacing" textLength="45" x="544.5" y="580.6895">ztunnel</text><text fill="#000000" font-family="sans-serif" font-size="14" lengthAdjust="spacing" textLength="147" x="493.5" y="598.2988">(n&#243; de payment-cache)</text><rect fill="#E2E2F0" height="49.2188" rx="2.5" ry="2.5" style="stroke:#181818;stroke-width:0.5;" width="111" x="694.5" y="43.6094"/><text fill="#000000" font-family="sans-serif" font-size="14" lengthAdjust="spacing" textLength="97" x="701.5" y="65.1426">payment-cache</text><text fill="#000000" font-family="sans-serif" font-size="14" lengthAdjust="spacing" textLength="34" x="733" y="82.752">(app)</text><rect fill="#E2E2F0" height="49.2188" rx="2.5" ry="2.5" style="stroke:#181818;stroke-width:0.5;" width="111" x="694.5" y="559.1563"/><text fill="#000000" font-family="sans-serif" font-size="14" lengthAdjust="spacing" textLength="97" x="701.5" y="580.6895">payment-cache</text><text fill="#000000" font-family="sans-serif" font-size="14" lengthAdjust="spacing" textLength="34" x="733" y="598.2988">(app)</text><rect fill="#FFFFFF" height="46.7031" style="stroke:#181818;stroke-width:1.0;" width="10" x="179" y="126.1797"/><rect fill="#FFFFFF" height="139.1094" style="stroke:#181818;stroke-width:1.0;" width="10" x="368" y="172.8828"/><rect fill="#FFFFFF" height="199.8125" style="stroke:#181818;stroke-width:1.0;" width="10" x="562" y="311.9922"/><rect fill="#FFFFFF" height="30.3516" style="stroke:#181818;stroke-width:1.0;" width="10" x="745" y="451.1016"/><polygon fill="#181818" points="167,122.1797,177,126.1797,167,130.1797,171,126.1797" style="stroke:#181818;stroke-width:1.0;"/><line style="stroke:#181818;stroke-width:1.0;" x1="51" x2="173" y1="126.1797" y2="126.1797"/><text fill="#000000" font-family="sans-serif" font-size="13" lengthAdjust="spacing" textLength="109" x="58" y="121.3232">GET /get-card-limit</text><polygon fill="#181818" points="356,168.8828,366,172.8828,356,176.8828,360,172.8828" style="stroke:#181818;stroke-width:1.0;"/><line style="stroke:#181818;stroke-width:1.0;" x1="184" x2="362" y1="172.8828" y2="172.8828"/><text fill="#000000" font-family="sans-serif" font-size="13" lengthAdjust="spacing" textLength="84" x="191" y="151.6748">mTLS HBONE</text><text fill="#000000" font-family="sans-serif" font-size="13" lengthAdjust="spacing" textLength="160" x="191" y="168.0264">(identidade de payment-api)</text><line style="stroke:#181818;stroke-width:1.0;" x1="378" x2="420" y1="235.9375" y2="235.9375"/><line style="stroke:#181818;stroke-width:1.0;" x1="420" x2="420" y1="235.9375" y2="248.9375"/><line style="stroke:#181818;stroke-width:1.0;" x1="379" x2="420" y1="248.9375" y2="248.9375"/><polygon fill="#181818" points="389,244.9375,379,248.9375,389,252.9375,385,248.9375" style="stroke:#181818;stroke-width:1.0;"/><text fill="#000000" font-family="sans-serif" font-size="13" lengthAdjust="spacing" textLength="159" x="385" y="198.3779">VirtualService (timeout 16s)</text><text fill="#000000" font-family="sans-serif" font-size="13" lengthAdjust="spacing" textLength="112" x="385" y="214.7295">AuthorizationPolicy</text><text fill="#000000" font-family="sans-serif" font-size="13" lengthAdjust="spacing" textLength="127" x="385" y="231.0811">(paths: /get-card-limit)</text><polygon fill="#181818" points="550,307.9922,560,311.9922,550,315.9922,554,311.9922" style="stroke:#181818;stroke-width:1.0;"/><line style="stroke:#181818;stroke-width:1.0;" x1="373" x2="556" y1="311.9922" y2="311.9922"/><text fill="#000000" font-family="sans-serif" font-size="13" lengthAdjust="spacing" textLength="84" x="380" y="274.4326">mTLS HBONE</text><text fill="#000000" font-family="sans-serif" font-size="13" lengthAdjust="spacing" textLength="128" x="380" y="290.7842">(identidade agora &#233; do</text><text fill="#000000" font-family="sans-serif" font-size="13" lengthAdjust="spacing" textLength="165" x="380" y="307.1357">WAYPOINT, n&#227;o mais de A)</text><line style="stroke:#181818;stroke-width:1.0;" x1="572" x2="614" y1="407.75" y2="407.75"/><line style="stroke:#181818;stroke-width:1.0;" x1="614" x2="614" y1="407.75" y2="420.75"/><line style="stroke:#181818;stroke-width:1.0;" x1="573" x2="614" y1="420.75" y2="420.75"/><polygon fill="#181818" points="583,416.75,573,420.75,583,424.75,579,420.75" style="stroke:#181818;stroke-width:1.0;"/><text fill="#000000" font-family="sans-serif" font-size="13" lengthAdjust="spacing" textLength="135" x="579" y="337.4873">o ztunnel de destino s&#243;</text><text fill="#000000" font-family="sans-serif" font-size="13" lengthAdjust="spacing" textLength="154" x="579" y="353.8389">enxerga "src=waypoint" &#8212;</text><text fill="#000000" font-family="sans-serif" font-size="13" lengthAdjust="spacing" textLength="159" x="579" y="370.1904">por isso a policy &#233; anexada</text><text fill="#000000" font-family="sans-serif" font-size="13" lengthAdjust="spacing" textLength="144" x="579" y="386.542">ao waypoint (targetRefs),</text><text fill="#000000" font-family="sans-serif" font-size="13" lengthAdjust="spacing" textLength="152" x="579" y="402.8936">n&#227;o ao workload (selector)</text><polygon fill="#181818" points="733,447.1016,743,451.1016,733,455.1016,737,451.1016" style="stroke:#181818;stroke-width:1.0;"/><line style="stroke:#181818;stroke-width:1.0;" x1="572" x2="739" y1="451.1016" y2="451.1016"/><text fill="#000000" font-family="sans-serif" font-size="13" lengthAdjust="spacing" textLength="117" x="579" y="446.2451">encaminha em claro</text><polygon fill="#181818" points="583,477.4531,573,481.4531,583,485.4531,579,481.4531" style="stroke:#181818;stroke-width:1.0;"/><line style="stroke:#181818;stroke-width:1.0;stroke-dasharray:2.0,2.0;" x1="577" x2="749" y1="481.4531" y2="481.4531"/><text fill="#000000" font-family="sans-serif" font-size="13" lengthAdjust="spacing" textLength="50" x="589" y="476.5967">resposta</text><polygon fill="#181818" points="384,507.8047,374,511.8047,384,515.8047,380,511.8047" style="stroke:#181818;stroke-width:1.0;"/><line style="stroke:#181818;stroke-width:1.0;stroke-dasharray:2.0,2.0;" x1="378" x2="566" y1="511.8047" y2="511.8047"/><text fill="#000000" font-family="sans-serif" font-size="13" lengthAdjust="spacing" textLength="84" x="390" y="506.9482">mTLS HBONE</text><polygon fill="#181818" points="62,538.1563,52,542.1563,62,546.1563,58,542.1563" style="stroke:#181818;stroke-width:1.0;"/><line style="stroke:#181818;stroke-width:1.0;stroke-dasharray:2.0,2.0;" x1="56" x2="372" y1="542.1563" y2="542.1563"/><text fill="#000000" font-family="sans-serif" font-size="13" lengthAdjust="spacing" textLength="130" x="68" y="537.2998">resposta (via ztunnels)</text><!--SRC=[ZPFFRjD04CRlVefHBiHIGiK5f4WWsQZyaQeseX4HaI_JzHAFME-QtNMQzCH3y0Oz8Cvz1By9JyAiOwTEG8ZRMllDjxzlPkp9AmblLBqra4kmycjDZfeVpRs1Nz- -GrBUaDH-0iAKiCHTPKXx65-yYACdy1gTuH9KCwXmLx9kYXN1zDNXKw0e98mtqW8vJ-RiwEBf3aiLHr65rfEW2jbwD73Az1YhAXu1EaYELNU-rbegLkZc8P0FolO5gvEAsmwUItfjKT_ijSlvVxgts9r_-dVkLZ8aJwCe2JrP9J23j-SBE5lB8BFvL559FaBXQODU1kHLArtEMLekBgxXNNfrUSvkbBCtvSWi9s6ZN0uD3cVEn3QzsKUolaPrBUs614_4KobDxU7PSnTdEgbzOIpT8Oz8puqYiMlRv0itEyMDEzjL-Wz6N1kBqFo4t6HwcNoQNxs_N4n0XxKgaLm8aHoXC-vZZ3HYz_uD0zque0tFQwGDkEOXqr9lfLqZZ9mLB_lvZiBUPheoOULuFn6gDb2WGIstc6EcqS3jOPazMexuGNvsyIJJBMEuD_QBCfZ3s4abXJSsxgW2bDG2Iz85WYn1ABJc4J-DMDRJM-agupmEi-xZ_Jdder6cRPzPb0nS-5SYxFlXujy0]--></g></svg>