<?xml version="1.0" encoding="us-ascii" standalone="no"?><svg xmlns="http://www.w3.org/2000/svg" xmlns:xlink="http://www.w3.org/1999/xlink" contentStyleType="text/css" height="442px" preserveAspectRatio="none" style="width:709px;height:442px;background:#FFFFFF;" version="1.1" viewBox="0 0 709 442" width="709px" zoomAndPan="magnify"><defs/><g><text fill="#000000" font-family="sans-serif" font-size="14" font-weight="bold" lengthAdjust="spacing" textLength="372.4375" x="167.2813" y="29.5332">Fluxo de requisi&#231;&#227;o &#8212; Ambient, s&#243; L4 (sem waypoint)</text><rect fill="#FFFFFF" height="46.7031" style="stroke:#181818;stroke-width:1.0;" width="10" x="245.5" y="142.5313"/><rect fill="#FFFFFF" height="150.7578" style="stroke:#181818;stroke-width:1.0;" width="10" x="449.5" y="189.2344"/><rect fill="#FFFFFF" height="30.3516" style="stroke:#181818;stroke-width:1.0;" width="10" x="653.5" y="279.2891"/><line style="stroke:#181818;stroke-width:0.5;stroke-dasharray:5.0,5.0;" x1="60" x2="60" y1="93.8281" y2="388.3438"/><line style="stroke:#181818;stroke-width:0.5;stroke-dasharray:5.0,5.0;" x1="250" x2="250" y1="93.8281" y2="388.3438"/><line style="stroke:#181818;stroke-width:0.5;stroke-dasharray:5.0,5.0;" x1="454" x2="454" y1="93.8281" y2="388.3438"/><line style="stroke:#181818;stroke-width:0.5;stroke-dasharray:5.0,5.0;" x1="658" x2="658" y1="93.8281" y2="388.3438"/><rect fill="#E2E2F0" height="49.2188" rx="2.5" ry="2.5" style="stroke:#181818;stroke-width:0.5;" width="111" x="5" y="43.6094"/><text fill="#000000" font-family="sans-serif" font-size="14" lengthAdjust="spacing" textLength="97" x="12" y="65.1426">payment-cache</text><text fill="#000000" font-family="sans-serif" font-size="14" lengthAdjust="spacing" textLength="34" x="43.5" y="82.752">(app)</text><rect fill="#E2E2F0" height="49.2188" rx="2.5" ry="2.5" style="stroke:#181818;stroke-width:0.5;" width="111" x="5" y="387.3438"/><text fill="#000000" font-family="sans-serif" font-size="14" lengthAdjust="spacing" textLength="97" x="12" y="408.877">payment-cache</text><text fill="#000000" font-family="sans-serif" font-size="14" lengthAdjust="spacing" textLength="34" x="43.5" y="426.4863">(app)</text><rect fill="#E2E2F0" height="49.2188" rx="2.5" ry="2.5" style="stroke:#181818;stroke-width:0.5;" width="161" x="170" y="43.6094"/><text fill="#000000" font-family="sans-serif" font-size="14" lengthAdjust="spacing" textLength="45" x="228" y="65.1426">ztunnel</text><text fill="#000000" font-family="sans-serif" font-size="14" lengthAdjust="spacing" textLength="147" x="177" y="82.752">(n&#243; de payment-cache)</text><rect fill="#E2E2F0" height="49.2188" rx="2.5" ry="2.5" style="stroke:#181818;stroke-width:0.5;" width="161" x="170" y="387.3438"/><text fill="#000000" font-family="sans-serif" font-size="14" lengthAdjust="spacing" textLength="45" x="228" y="408.877">ztunnel</text><text fill="#000000" font-family="sans-serif" font-size="14" lengthAdjust="spacing" textLength="147" x="177" y="426.4863">(n&#243; de payment-cache)</text><rect fill="#E2E2F0" height="49.2188" rx="2.5" ry="2.5" style="stroke:#181818;stroke-width:0.5;" width="139" x="385" y="43.6094"/><text fill="#000000" font-family="sans-serif" font-size="14" lengthAdjust="spacing" textLength="45" x="432" y="65.1426">ztunnel</text><text fill="#000000" font-family="sans-serif" font-size="14" lengthAdjust="spacing" textLength="125" x="392" y="82.752">(n&#243; de payment-db)</text><rect fill="#E2E2F0" height="49.2188" rx="2.5" ry="2.5" style="stroke:#181818;stroke-width:0.5;" width="139" x="385" y="387.3438"/><text fill="#000000" font-family="sans-serif" font-size="14" lengthAdjust="spacing" textLength="45" x="432" y="408.877">ztunnel</text><text fill="#000000" font-family="sans-serif" font-size="14" lengthAdjust="spacing" textLength="125" x="392" y="426.4863">(n&#243; de payment-db)</text><rect fill="#E2E2F0" height="49.2188" rx="2.5" ry="2.5" style="stroke:#181818;stroke-width:0.5;" width="89" x="614" y="43.6094"/><text fill="#000000" font-family="sans-serif" font-size="14" lengthAdjust="spacing" textLength="75" x="621" y="65.1426">payment-db</text><text fill="#000000" font-family="sans-serif" font-size="14" lengthAdjust="spacing" textLength="34" x="641.5" y="82.752">(app)</text><rect fill="#E2E2F0" height="49.2188" rx="2.5" ry="2.5" style="stroke:#181818;stroke-width:0.5;" width="89" x="614" y="387.3438"/><text fill="#000000" font-family="sans-serif" font-size="14" lengthAdjust="spacing" textLength="75" x="621" y="408.877">payment-db</text><text fill="#000000" font-family="sans-serif" font-size="14" lengthAdjust="spacing" textLength="34" x="641.5" y="426.4863">(app)</text><rect fill="#FFFFFF" height="46.7031" style="stroke:#181818;stroke-width:1.0;" width="10" x="245.5" y="142.5313"/><rect fill="#FFFFFF" height="150.7578" style="stroke:#181818;stroke-width:1.0;" width="10" x="449.5" y="189.2344"/><rect fill="#FFFFFF" height="30.3516" style="stroke:#181818;stroke-width:1.0;" width="10" x="653.5" y="279.2891"/><polygon fill="#181818" points="233.5,138.5313,243.5,142.5313,233.5,146.5313,237.5,142.5313" style="stroke:#181818;stroke-width:1.0;"/><line style="stroke:#181818;stroke-width:1.0;" x1="60.5" x2="239.5" y1="142.5313" y2="142.5313"/><text fill="#000000" font-family="sans-serif" font-size="13" lengthAdjust="spacing" textLength="166" x="67.5" y="121.3232">GET /get-chargeback-history</text><text fill="#000000" font-family="sans-serif" font-size="13" lengthAdjust="spacing" textLength="129" x="67.5" y="137.6748">(redirecionado via CNI)</text><polygon fill="#181818" points="437.5,185.2344,447.5,189.2344,437.5,193.2344,441.5,189.2344" style="stroke:#181818;stroke-width:1.0;"/><line style="stroke:#181818;stroke-width:1.0;" x1="250.5" x2="443.5" y1="189.2344" y2="189.2344"/><text fill="#000000" font-family="sans-serif" font-size="13" lengthAdjust="spacing" textLength="84" x="257.5" y="168.0264">mTLS HBONE</text><text fill="#000000" font-family="sans-serif" font-size="13" lengthAdjust="spacing" textLength="175" x="257.5" y="184.3779">(identidade SPIFFE do Pod A)</text><line style="stroke:#181818;stroke-width:1.0;" x1="459.5" x2="501.5" y1="235.9375" y2="235.9375"/><line style="stroke:#181818;stroke-width:1.0;" x1="501.5" x2="501.5" y1="235.9375" y2="248.9375"/><line style="stroke:#181818;stroke-width:1.0;" x1="460.5" x2="501.5" y1="248.9375" y2="248.9375"/><polygon fill="#181818" points="470.5,244.9375,460.5,248.9375,470.5,252.9375,466.5,248.9375" style="stroke:#181818;stroke-width:1.0;"/><text fill="#000000" font-family="sans-serif" font-size="13" lengthAdjust="spacing" textLength="116" x="466.5" y="214.7295">checa identidade L4</text><text fill="#000000" font-family="sans-serif" font-size="13" lengthAdjust="spacing" textLength="180" x="466.5" y="231.0811">(allow/deny simples, sem path)</text><polygon fill="#181818" points="641.5,275.2891,651.5,279.2891,641.5,283.2891,645.5,279.2891" style="stroke:#181818;stroke-width:1.0;"/><line style="stroke:#181818;stroke-width:1.0;" x1="459.5" x2="647.5" y1="279.2891" y2="279.2891"/><text fill="#000000" font-family="sans-serif" font-size="13" lengthAdjust="spacing" textLength="117" x="466.5" y="274.4326">encaminha em claro</text><polygon fill="#181818" points="470.5,305.6406,460.5,309.6406,470.5,313.6406,466.5,309.6406" style="stroke:#181818;stroke-width:1.0;"/><line style="stroke:#181818;stroke-width:1.0;stroke-dasharray:2.0,2.0;" x1="464.5" x2="657.5" y1="309.6406" y2="309.6406"/><text fill="#000000" font-family="sans-serif" font-size="13" lengthAdjust="spacing" textLength="50" x="476.5" y="304.7842">resposta</text><polygon fill="#181818" points="261.5,335.9922,251.5,339.9922,261.5,343.9922,257.5,339.9922" style="stroke:#181818;stroke-width:1.0;"/><line style="stroke:#181818;stroke-width:1.0;stroke-dasharray:2.0,2.0;" x1="255.5" x2="453.5" y1="339.9922" y2="339.9922"/><text fill="#000000" font-family="sans-serif" font-size="13" lengthAdjust="spacing" textLength="84" x="267.5" y="335.1357">mTLS HBONE</text><polygon fill="#181818" points="71.5,366.3438,61.5,370.3438,71.5,374.3438,67.5,370.3438" style="stroke:#181818;stroke-width:1.0;"/><line style="stroke:#181818;stroke-width:1.0;stroke-dasharray:2.0,2.0;" x1="65.5" x2="249.5" y1="370.3438" y2="370.3438"/><text fill="#000000" font-family="sans-serif" font-size="13" lengthAdjust="spacing" textLength="50" x="77.5" y="365.4873">resposta</text><!--SRC=[ZP4nRW8n44NxFSM8YfM2QAXIHDgD845210agb6RM7h6ZxDgERI2RAeV83LBa03a2Dyb9CWGGYvGYdMN___wVSUHO4OogzOi5JU3fUSs1Tv-x3mlVR- -GrGMJYLSGTbym6K0tK0rRR9nb4zCaSUWZAtPe8dGSDhM8UmfLIO-cYywb7S00sQNkDQwDeKeKHgWIUs4yM9R_zUZYQCZ_BgEBTfCyIJBetGWUhk5kk83-YYItHB-Y0jLJh-GGhM_4uqcp9yNMeBQmOOJRwJXDK4NUOAHzm-M1bGkhNapcS9y_J8TYPIt9h55gpcVZqMW8GfXP3LcQQ6eJpkSy4Sw99cjG22tCPB2VeghijY-N3GIkNKL1_aN-ms4iqwDzxoQZi6PJ8iYZgj3RSqwUYEmKuoau6oAsInrwd5Pq7kkYUFuxkeYo5kK7]--></g></svg>