<?xml version="1.0" encoding="us-ascii" standalone="no"?><svg xmlns="http://www.w3.org/2000/svg" xmlns:xlink="http://www.w3.org/1999/xlink" contentStyleType="text/css" height="623px" preserveAspectRatio="none" style="width:1204px;height:623px;" version="1.1" viewBox="0 0 1204 623" width="1204px" zoomAndPan="magnify"><defs/><g><text fill="#000000" font-family="sans-serif" font-size="14" font-weight="bold" lengthAdjust="spacing" textLength="236.4375" x="477.0313" y="24.5332">Istio Ambient Mode &#8212; Arquitetura</text><!--cluster Control Plane (istio-system)--><g id="cluster_Control Plane (istio-system)"><path d="M90.5,111.6094 L284.5,111.6094 A3.75,3.75 0 0 1 287,114.1094 L294,135.2188 L294.5,135.2188 A2.5,2.5 0 0 1 297,137.7188 L297,199.1094 A2.5,2.5 0 0 1 294.5,201.6094 L90.5,201.6094 A2.5,2.5 0 0 1 88,199.1094 L88,114.1094 A2.5,2.5 0 0 1 90.5,111.6094 " fill="none" style="stroke:#000000;stroke-width:1.5;"/><line style="stroke:#000000;stroke-width:1.5;" x1="88" x2="294" y1="135.2188" y2="135.2188"/><text fill="#000000" font-family="sans-serif" font-size="14" font-weight="bold" lengthAdjust="spacing" textLength="193" x="92" y="128.1426">Control Plane (istio-system)</text></g><!--cluster N? Kubernetes--><g id="cluster_N&#243; Kubernetes"><polygon fill="none" points="375,54.6094,385,44.6094,732,44.6094,732,596.1094,722,606.1094,375,606.1094,375,54.6094" style="stroke:#181818;stroke-width:1.0;"/><line style="stroke:#181818;stroke-width:1.0;" x1="722" x2="732" y1="54.6094" y2="44.6094"/><line style="stroke:#181818;stroke-width:1.0;" x1="375" x2="722" y1="54.6094" y2="54.6094"/><line style="stroke:#181818;stroke-width:1.0;" x1="722" x2="722" y1="54.6094" y2="606.1094"/><text fill="#000000" font-family="sans-serif" font-size="14" font-weight="bold" lengthAdjust="spacing" textLength="106" x="496.5" y="72.1426">N&#243; Kubernetes</text></g><!--cluster Pod payment-api\n(sem sidecar)--><g id="cluster_Pod payment-api\n(sem sidecar)"><path d="M401.5,93.6094 L518.5,93.6094 A3.75,3.75 0 0 1 521,96.1094 L528,134.8281 L556.5,134.8281 A2.5,2.5 0 0 1 559,137.3281 L559,199.1094 A2.5,2.5 0 0 1 556.5,201.6094 L401.5,201.6094 A2.5,2.5 0 0 1 399,199.1094 L399,96.1094 A2.5,2.5 0 0 1 401.5,93.6094 " fill="none" style="stroke:#000000;stroke-width:1.5;"/><line style="stroke:#000000;stroke-width:1.5;" x1="399" x2="528" y1="134.8281" y2="134.8281"/><text fill="#000000" font-family="sans-serif" font-size="14" font-weight="bold" lengthAdjust="spacing" textLength="116" x="403" y="110.1426">Pod payment-api</text><text fill="#000000" font-family="sans-serif" font-size="14" font-weight="bold" lengthAdjust="spacing" textLength="95" x="413.5" y="127.752">(sem sidecar)</text></g><!--cluster Pod payment-cache\n(sem sidecar)--><g id="cluster_Pod payment-cache\n(sem sidecar)"><path d="M401.5,474.1094 L539.5,474.1094 A3.75,3.75 0 0 1 542,476.6094 L549,515.3281 L574.5,515.3281 A2.5,2.5 0 0 1 577,517.8281 L577,579.6094 A2.5,2.5 0 0 1 574.5,582.1094 L401.5,582.1094 A2.5,2.5 0 0 1 399,579.6094 L399,476.6094 A2.5,2.5 0 0 1 401.5,474.1094 " fill="none" style="stroke:#000000;stroke-width:1.5;"/><line style="stroke:#000000;stroke-width:1.5;" x1="399" x2="549" y1="515.3281" y2="515.3281"/><text fill="#000000" font-family="sans-serif" font-size="14" font-weight="bold" lengthAdjust="spacing" textLength="137" x="403" y="490.6426">Pod payment-cache</text><text fill="#000000" font-family="sans-serif" font-size="14" font-weight="bold" lengthAdjust="spacing" textLength="95" x="424" y="508.252">(sem sidecar)</text></g><!--cluster Namespace payment-hub--><g id="cluster_Namespace payment-hub"><path d="M8.5,284.6094 L185.5,284.6094 A3.75,3.75 0 0 1 188,287.1094 L195,308.2188 L239.5,308.2188 A2.5,2.5 0 0 1 242,310.7188 L242,389.1094 A2.5,2.5 0 0 1 239.5,391.6094 L8.5,391.6094 A2.5,2.5 0 0 1 6,389.1094 L6,287.1094 A2.5,2.5 0 0 1 8.5,284.6094 " fill="none" style="stroke:#000000;stroke-width:1.5;"/><line style="stroke:#000000;stroke-width:1.5;" x1="6" x2="195" y1="308.2188" y2="308.2188"/><text fill="#000000" font-family="sans-serif" font-size="14" font-weight="bold" lengthAdjust="spacing" textLength="176" x="10" y="301.1426">Namespace payment-hub</text></g><!--entity istiod--><g id="elem_istiod"><rect fill="#F1F1F1" height="37.6094" rx="2.5" ry="2.5" style="stroke:#181818;stroke-width:0.5;" width="53" x="148.5" y="147.6094"/><text fill="#000000" font-family="sans-serif" font-size="14" lengthAdjust="spacing" textLength="33" x="158.5" y="172.1426">istiod</text></g><!--entity zt1--><g id="elem_zt1"><rect fill="#F1F1F1" height="55.2188" rx="2.5" ry="2.5" style="stroke:#181818;stroke-width:0.5;" width="165" x="391.5" y="320.6094"/><text fill="#000000" font-family="sans-serif" font-size="14" lengthAdjust="spacing" textLength="45" x="401.5" y="345.1426">ztunnel</text><text fill="#000000" font-family="sans-serif" font-size="14" lengthAdjust="spacing" textLength="145" x="401.5" y="362.752">(DaemonSet, 1 por n&#243;)</text></g><!--entity app1--><g id="elem_app1"><rect fill="#F1F1F1" height="37.6094" rx="2.5" ry="2.5" style="stroke:#181818;stroke-width:0.5;" width="127" x="415.5" y="147.6094"/><text fill="#000000" font-family="sans-serif" font-size="14" lengthAdjust="spacing" textLength="107" x="425.5" y="172.1426">App payment-api</text></g><!--entity app2--><g id="elem_app2"><rect fill="#F1F1F1" height="37.6094" rx="2.5" ry="2.5" style="stroke:#181818;stroke-width:0.5;" width="146" x="415" y="528.1094"/><text fill="#000000" font-family="sans-serif" font-size="14" lengthAdjust="spacing" textLength="126" x="425" y="552.6426">App payment-cache</text></g><!--entity wp--><g id="elem_wp"><rect fill="#F1F1F1" height="55.2188" rx="2.5" ry="2.5" style="stroke:#181818;stroke-width:0.5;" width="204" x="22" y="320.6094"/><text fill="#000000" font-family="sans-serif" font-size="14" lengthAdjust="spacing" textLength="55" x="32" y="345.1426">waypoint</text><text fill="#000000" font-family="sans-serif" font-size="14" lengthAdjust="spacing" textLength="184" x="32" y="362.752">(Deployment, L7 &#8212; opcional)</text></g><g id="elem_GMN19"><path d="M750.5,326.6094 L750.5,344.1094 L556.79,348.1094 L750.5,352.1094 L750.5,369.3125 A0,0 0 0 0 750.5,369.3125 L931.5,369.3125 A0,0 0 0 0 931.5,369.3125 L931.5,336.6094 L921.5,326.6094 L750.5,326.6094 A0,0 0 0 0 750.5,326.6094 " fill="#FEFFDD" style="stroke:#181818;stroke-width:0.5;"/><path d="M921.5,326.6094 L921.5,336.6094 L931.5,336.6094 L921.5,326.6094 " fill="#FEFFDD" style="stroke:#181818;stroke-width:0.5;"/><text fill="#000000" font-family="sans-serif" font-size="13" lengthAdjust="spacing" textLength="148" x="756.5" y="345.1045">1 processo por N&#211; inteiro</text><text fill="#000000" font-family="sans-serif" font-size="13" lengthAdjust="spacing" textLength="160" x="756.5" y="361.4561">(n&#227;o por Pod). Cobre s&#243; L4.</text></g><g id="elem_GMN22"><path d="M966.5,302.1094 L966.5,393.8672 L1197.5,393.8672 L1197.5,312.1094 L1187.5,302.1094 L966.5,302.1094 " fill="#FEFFDD" style="stroke:#181818;stroke-width:0.5;"/><path d="M1187.5,302.1094 L1187.5,312.1094 L1197.5,312.1094 L1187.5,302.1094 " fill="#FEFFDD" style="stroke:#181818;stroke-width:1.0;"/><text fill="#000000" font-family="sans-serif" font-size="13" lengthAdjust="spacing" textLength="159" x="972.5" y="320.6045">S&#243; existe se o namespace/</text><text fill="#000000" font-family="sans-serif" font-size="13" lengthAdjust="spacing" textLength="130" x="972.5" y="336.9561">servi&#231;o precisar de L7.</text><text fill="#000000" font-family="sans-serif" font-size="13" lengthAdjust="spacing" textLength="164" x="972.5" y="353.3076">Implementado como recurso</text><text fill="#000000" font-family="sans-serif" font-size="13" lengthAdjust="spacing" textLength="171" x="972.5" y="369.6592">Gateway API (kind: Gateway,</text><text fill="#000000" font-family="sans-serif" font-size="13" lengthAdjust="spacing" textLength="210" x="972.5" y="386.0107">gatewayClassName: istio-waypoint).</text></g><!--link app1 to zt1--><g id="link_app1_zt1"><path d="M478.49,185.8094 C477.61,217.6294 475.9371,277.5017 474.9071,314.4617 " fill="none" id="app1-to-zt1" style="stroke:#181818;stroke-width:1.0;"/><polygon fill="#181818" points="474.74,320.4594,478.9892,311.5743,474.8793,315.4613,470.9923,311.3514,474.74,320.4594" style="stroke:#181818;stroke-width:1.0;"/><text fill="#000000" font-family="sans-serif" font-size="13" lengthAdjust="spacing" textLength="105" x="478" y="232.1045">redirecionado pelo</text><text fill="#000000" font-family="sans-serif" font-size="13" lengthAdjust="spacing" textLength="100" x="480.5" y="248.4561">CNI do Istio (sem</text><text fill="#000000" font-family="sans-serif" font-size="13" lengthAdjust="spacing" textLength="94" x="483.5" y="264.8076">iptables no Pod)</text></g><!--link zt1 to zt1--><g id="link_zt1_zt1"><path d="M556.63,331.1494 C576.64,332.4394 591.5,338.0894 591.5,348.1094 C591.5,358.1294 582.6276,363.3934 562.6176,364.6834 " fill="none" id="zt1-to-zt1" style="stroke:#181818;stroke-width:1.0;"/><polygon fill="#181818" points="556.63,365.0694,565.8687,368.4821,561.6196,364.7477,565.354,360.4987,556.63,365.0694" style="stroke:#181818;stroke-width:1.0;"/><text fill="#000000" font-family="sans-serif" font-size="13" lengthAdjust="spacing" textLength="103" x="610.5" y="345.6045">mTLS via HBONE</text><text fill="#000000" font-family="sans-serif" font-size="13" lengthAdjust="spacing" textLength="129" x="597.5" y="361.9561">(ztunnel-a-ztunnel, L4)</text></g><!--link zt1 to wp--><g id="link_zt1_wp"><path d="M391.4,348.1094 C341.97,348.1094 284.74,348.1094 232.18,348.1094 " fill="none" id="zt1-to-wp" style="stroke:#181818;stroke-width:1.0;stroke-dasharray:7.0,7.0;"/><polygon fill="#181818" points="226.18,348.1094,235.18,352.1094,231.18,348.1094,235.18,344.1094,226.18,348.1094" style="stroke:#181818;stroke-width:1.0;"/><text fill="#000000" font-family="sans-serif" font-size="13" lengthAdjust="spacing" textLength="123" x="247.25" y="325.6045">s&#243; quando h&#225; pol&#237;tica</text><text fill="#000000" font-family="sans-serif" font-size="13" lengthAdjust="spacing" textLength="129" x="244.25" y="341.9561">ou rota L7 no caminho</text></g><!--link wp to app2--><g id="link_wp_app2"><path d="M157.15,375.8094 C187.42,399.3894 234.03,433.7194 278,458.1094 C329.68,486.7694 386.9901,509.8948 430.4101,525.8948 " fill="none" id="wp-to-app2" style="stroke:#181818;stroke-width:1.0;"/><polygon fill="#181818" points="436.04,527.9694,428.9782,521.1042,431.3484,526.2405,426.212,528.6108,436.04,527.9694" style="stroke:#181818;stroke-width:1.0;"/><text fill="#000000" font-family="sans-serif" font-size="13" lengthAdjust="spacing" textLength="95" x="279" y="438.6045">encaminha ap&#243;s</text><text fill="#000000" font-family="sans-serif" font-size="13" lengthAdjust="spacing" textLength="56" x="298.5" y="454.9561">aplicar L7</text></g><!--link zt1 to app2--><g id="link_zt1_app2"><path d="M475.89,375.6794 C478.78,416.3194 483.7954,486.9144 486.2754,521.8744 " fill="none" id="zt1-to-app2" style="stroke:#181818;stroke-width:1.0;"/><polygon fill="#181818" points="486.7,527.8594,490.0531,518.5989,486.3462,522.8719,482.0732,519.165,486.7,527.8594" style="stroke:#181818;stroke-width:1.0;"/><text fill="#000000" font-family="sans-serif" font-size="13" lengthAdjust="spacing" textLength="82" x="482" y="438.6045">direto, quando</text><text fill="#000000" font-family="sans-serif" font-size="13" lengthAdjust="spacing" textLength="68" x="489" y="454.9561">s&#243; L4 basta</text></g><!--link istiod to zt1--><g id="link_istiod_zt1"><path d="M194.73,185.6394 C218.98,207.1894 261.95,243.4894 303,268.6094 C335.6,288.5594 368.604,304.3085 400.824,318.0985 " fill="none" id="istiod-to-zt1" style="stroke:#181818;stroke-width:1.0;stroke-dasharray:7.0,7.0;"/><polygon fill="#181818" points="406.34,320.4594,399.6399,313.2408,401.7433,318.492,396.4921,320.5955,406.34,320.4594" style="stroke:#181818;stroke-width:1.0;"/><text fill="#000000" font-family="sans-serif" font-size="13" lengthAdjust="spacing" textLength="163" x="304" y="248.6045">xDS (config L4, certificados)</text></g><!--link istiod to wp--><g id="link_istiod_wp"><path d="M155.55,185.7294 C147.42,194.5194 138.77,205.7294 134,217.6094 C120.55,251.0894 119.681,287.3184 121.161,314.2684 " fill="none" id="istiod-to-wp" style="stroke:#181818;stroke-width:1.0;stroke-dasharray:7.0,7.0;"/><polygon fill="#181818" points="121.49,320.2594,124.9905,311.0536,121.2158,315.2669,117.0025,311.4923,121.49,320.2594" style="stroke:#181818;stroke-width:1.0;"/><text fill="#000000" font-family="sans-serif" font-size="13" lengthAdjust="spacing" textLength="89" x="135" y="248.6045">xDS (config L7)</text></g><!--link wp to GMN22--><g id="link_wp_GMN22"><path d="M177,320.5394 C229.93,294.6694 314.42,257.8294 392.5,243.1094 C510.2,220.9094 817.24,207.1894 931.5,243.1094 C968.88,254.8594 1005.09,279.5594 1032.61,302.0494 " fill="none" id="wp-GMN22" style="stroke:#181818;stroke-width:1.0;stroke-dasharray:7.0,7.0;"/></g><!--SRC=[ZLF1QXj13BtlLuYSRF2wf0G2EGHSfxIchXjmRtKFygvY3vcL9ZEpIPmIw3yqFr1wwAcdVCB-IR-acbqxE8L2RpEZfpTFqbCqqH9CGZG2esffY2EybvBWzzS76FchsaIAjSSi2vU67Ngie93A2Ijo7ZUQxAc8o2jBUv0b5fShBpMNOx7Y8Nhae25DoZAdGLmH78o5enSBvnQPe6UIYZniGgIgVm1VCe1FxLlv6J10TypkiuoJm8DPymZlwYLvfaXXYx-BDJFP1VVEa2hXESK1789J3TmyzbkYktYeq2SLvrBgPLEfjXoTqTH05GHJKe5-gqEPHyxjmrecT2vHtV-Bhi1YJVz3s09tb2zRolkzHism8crVGKy9wtgvhVW6DquCnrGoEIjjV03JutQ4uWeZZBQh_CObsgGQyb9kE3zDpO0JdM5fT8u9MWeuihBWyMm2UkcyaKfOi74HbvO2i83MsSzITkxDQXsVgAgFqpbS6uIthpxCNgkgxKXopBSd5NVKfGw7fwf9auBEygf6rl_MpNSTbsr-HLFWWgK6Bn5JFVffWPNXjMIQj2iWDKmPYBiOwaFp61QCpYg1ryHEvNDuAZVAOFlfWfE0wP7wDaJrUcUrLbvNrEtP77g5y8LPAMm01VbeBfI_bD3VXxVLF4CVzvDXe-v9QXF8nTP_Qael1OKWhJjdpJVGAPBnei4UDp-wzzJc8OnbwGawaSECk8H4-JUnZXTWhY2wLKcA9n3WdNTUQ32GlpRDJwLEqmxQ7jsawV5GGvFAMKhUIGxG5PUqsBKFISuRZAG-Wz7v17gwvEN9xccWqLLt75iC8Jdrf5lLVEVC_fxYFm00]--></g></svg>