<?xml version="1.0" encoding="us-ascii" standalone="no"?><svg xmlns="http://www.w3.org/2000/svg" xmlns:xlink="http://www.w3.org/1999/xlink" contentStyleType="text/css" height="651px" preserveAspectRatio="none" style="width:413px;height:651px;" version="1.1" viewBox="0 0 413 651" width="413px" zoomAndPan="magnify"><defs/><g><text fill="#000000" font-family="sans-serif" font-size="14" font-weight="bold" lengthAdjust="spacing" textLength="385.875" x="10" y="24.5332">Istio &#8212; Sidecar &#8594; Ambient (linha do tempo aproximada)</text><!--entity t1--><g id="elem_t1"><rect fill="#F1F1F1" height="72.8281" rx="2.5" ry="2.5" style="stroke:#181818;stroke-width:0.5;" width="180" x="119.4375" y="45.6094"/><text fill="#000000" font-family="sans-serif" font-size="14" lengthAdjust="spacing" textLength="69" x="129.4375" y="70.1426">2017-2018</text><text fill="#000000" font-family="sans-serif" font-size="14" lengthAdjust="spacing" textLength="87" x="129.4375" y="87.752">Istio 0.x &#8594; 1.0</text><text fill="#000000" font-family="sans-serif" font-size="14" lengthAdjust="spacing" textLength="160" x="129.4375" y="105.3613">Sidecar &#233; o &#250;nico modelo</text></g><!--entity t2--><g id="elem_t2"><rect fill="#F1F1F1" height="72.8281" rx="2.5" ry="2.5" style="stroke:#181818;stroke-width:0.5;" width="109" x="154.9375" y="153.6094"/><text fill="#000000" font-family="sans-serif" font-size="14" lengthAdjust="spacing" textLength="55" x="164.9375" y="178.1426">set/2022</text><text fill="#000000" font-family="sans-serif" font-size="14" lengthAdjust="spacing" textLength="89" x="164.9375" y="195.752">Ambient Mesh</text><text fill="#000000" font-family="sans-serif" font-size="14" lengthAdjust="spacing" textLength="66" x="164.9375" y="213.3613">anunciado</text></g><!--entity t3--><g id="elem_t3"><rect fill="#F1F1F1" height="72.8281" rx="2.5" ry="2.5" style="stroke:#181818;stroke-width:0.5;" width="133" x="142.9375" y="261.6094"/><text fill="#000000" font-family="sans-serif" font-size="14" lengthAdjust="spacing" textLength="86" x="152.9375" y="286.1426">meados 2023</text><text fill="#000000" font-family="sans-serif" font-size="14" lengthAdjust="spacing" textLength="57" x="152.9375" y="303.752">Istio 1.18</text><text fill="#000000" font-family="sans-serif" font-size="14" lengthAdjust="spacing" textLength="113" x="152.9375" y="321.3613">Ambient em alpha</text></g><!--entity t4--><g id="elem_t4"><rect fill="#F1F1F1" height="72.8281" rx="2.5" ry="2.5" style="stroke:#181818;stroke-width:0.5;" width="126" x="146.4375" y="369.6094"/><text fill="#000000" font-family="sans-serif" font-size="14" lengthAdjust="spacing" textLength="32" x="156.4375" y="394.1426">2024</text><text fill="#000000" font-family="sans-serif" font-size="14" lengthAdjust="spacing" textLength="57" x="156.4375" y="411.752">Istio 1.22</text><text fill="#000000" font-family="sans-serif" font-size="14" lengthAdjust="spacing" textLength="106" x="156.4375" y="429.3613">Ambient em beta</text></g><!--entity t5--><g id="elem_t5"><rect fill="#F1F1F1" height="72.8281" rx="2.5" ry="2.5" style="stroke:#181818;stroke-width:0.5;" width="95" x="161.9375" y="477.6094"/><text fill="#000000" font-family="sans-serif" font-size="14" lengthAdjust="spacing" textLength="59" x="171.9375" y="502.1426">nov/2024</text><text fill="#000000" font-family="sans-serif" font-size="14" lengthAdjust="spacing" textLength="57" x="171.9375" y="519.752">Istio 1.24</text><text fill="#000000" font-family="sans-serif" font-size="14" lengthAdjust="spacing" textLength="75" x="171.9375" y="537.3613">Ambient GA</text></g><g id="elem_GMN11"><path d="M85.9375,585.6094 L85.9375,644.6641 A0,0 0 0 0 85.9375,644.6641 L332.9375,644.6641 A0,0 0 0 0 332.9375,644.6641 L332.9375,595.6094 L322.9375,585.6094 L213.4375,585.6094 L209.4375,550.6494 L205.4375,585.6094 L85.9375,585.6094 A0,0 0 0 0 85.9375,585.6094 " fill="#FEFFDD" style="stroke:#181818;stroke-width:0.5;"/><path d="M322.9375,585.6094 L322.9375,595.6094 L332.9375,595.6094 L322.9375,585.6094 " fill="#FEFFDD" style="stroke:#181818;stroke-width:0.5;"/><text fill="#000000" font-family="sans-serif" font-size="13" lengthAdjust="spacing" textLength="167" x="91.9375" y="604.1045">Este projeto roda Istio 1.30.2</text><text fill="#000000" font-family="sans-serif" font-size="13" lengthAdjust="spacing" textLength="226" x="91.9375" y="620.4561">(ver istio-configmap-tracing-patch.yaml)</text><text fill="#000000" font-family="sans-serif" font-size="13" lengthAdjust="spacing" textLength="213" x="91.9375" y="636.8076">&#8212; j&#225; bem depois do GA do Ambient.</text></g><!--link t1 to t2--><g id="link_t1_t2"><path d="M209.4375,118.8694 C209.4375,130.3794 209.4375,135.8994 209.4375,147.4094 " fill="none" id="t1-to-t2" style="stroke:#181818;stroke-width:1.0;"/><polygon fill="#181818" points="209.4375,153.4094,213.4375,144.4094,209.4375,148.4094,205.4375,144.4094,209.4375,153.4094" style="stroke:#181818;stroke-width:1.0;"/></g><!--link t2 to t3--><g id="link_t2_t3"><path d="M209.4375,226.8694 C209.4375,238.3794 209.4375,243.8994 209.4375,255.4094 " fill="none" id="t2-to-t3" style="stroke:#181818;stroke-width:1.0;"/><polygon fill="#181818" points="209.4375,261.4094,213.4375,252.4094,209.4375,256.4094,205.4375,252.4094,209.4375,261.4094" style="stroke:#181818;stroke-width:1.0;"/></g><!--link t3 to t4--><g id="link_t3_t4"><path d="M209.4375,334.8694 C209.4375,346.3794 209.4375,351.8994 209.4375,363.4094 " fill="none" id="t3-to-t4" style="stroke:#181818;stroke-width:1.0;"/><polygon fill="#181818" points="209.4375,369.4094,213.4375,360.4094,209.4375,364.4094,205.4375,360.4094,209.4375,369.4094" style="stroke:#181818;stroke-width:1.0;"/></g><!--link t4 to t5--><g id="link_t4_t5"><path d="M209.4375,442.8694 C209.4375,454.3794 209.4375,459.8994 209.4375,471.4094 " fill="none" id="t4-to-t5" style="stroke:#181818;stroke-width:1.0;"/><polygon fill="#181818" points="209.4375,477.4094,213.4375,468.4094,209.4375,472.4094,205.4375,468.4094,209.4375,477.4094" style="stroke:#181818;stroke-width:1.0;"/></g><!--SRC=[NPAzRjmm381tFGMHAHdi-AzefmA780WwTEfw2y_YsKeiqf2O8DaozG6Ala36l4BNUvCyIQNS6N6x223DZ_feIfrE1D-YEe6tvz_mmrdgCS3Rpr-myJj7h70-EHuHh82IdmLm3lBeF5gyC6QYlO8A13UC2jO5wbClDl7EyOm1FUomlnk2tBEzaaa2Q42EwLDgRKmkHnwImrbJrP-BT7pPyj6dAX_VFUgosl8YTdW5WSCVThs05qkJd056q7hTAf9UDbNJR7cPuJl5SSl8zzmxj2UcMJEUKZv2mjf5e2wppDA2FE0qZtXast_Lc-u3Mj-Re1tfYUdM3Cl3vNzSzy7TR8x89sEqXkBzxnPVix8sgx0rsgx2pcYt2XFCeWGxKHKFiiyfWEkOScc7jvJt9XPXCMYhiaa5vmyKmELSqGlltU1nBjBQUiT3CQFsO_c4Vhf8fVdDt1vUqf0UBCtYOdudDvjydcOf3R65B6B-0W00]--></g></svg>