<?xml version="1.0" encoding="us-ascii" standalone="no"?><svg xmlns="http://www.w3.org/2000/svg" xmlns:xlink="http://www.w3.org/1999/xlink" contentStyleType="text/css" height="779px" preserveAspectRatio="none" style="width:784px;height:779px;" version="1.1" viewBox="0 0 784 779" width="784px" zoomAndPan="magnify"><defs/><g><text fill="#000000" font-family="sans-serif" font-size="14" font-weight="bold" lengthAdjust="spacing" textLength="232.4375" x="269.0313" y="24.5332">Istio Sidecar Mode &#8212; Arquitetura</text><!--cluster Control Plane (istio-system)--><g id="cluster_Control Plane (istio-system)"><path d="M550.5,247.6094 L744.5,247.6094 A3.75,3.75 0 0 1 747,250.1094 L754,271.2188 L754.5,271.2188 A2.5,2.5 0 0 1 757,273.7188 L757,335.1094 A2.5,2.5 0 0 1 754.5,337.6094 L550.5,337.6094 A2.5,2.5 0 0 1 548,335.1094 L548,250.1094 A2.5,2.5 0 0 1 550.5,247.6094 " fill="none" style="stroke:#000000;stroke-width:1.5;"/><line style="stroke:#000000;stroke-width:1.5;" x1="548" x2="754" y1="271.2188" y2="271.2188"/><text fill="#000000" font-family="sans-serif" font-size="14" font-weight="bold" lengthAdjust="spacing" textLength="193" x="552" y="264.1426">Control Plane (istio-system)</text></g><!--cluster N? Kubernetes--><g id="cluster_N&#243; Kubernetes"><polygon fill="none" points="16,54.6094,26,44.6094,524,44.6094,524,752.1094,514,762.1094,16,762.1094,16,54.6094" style="stroke:#181818;stroke-width:1.0;"/><line style="stroke:#181818;stroke-width:1.0;" x1="514" x2="524" y1="54.6094" y2="44.6094"/><line style="stroke:#181818;stroke-width:1.0;" x1="16" x2="514" y1="54.6094" y2="54.6094"/><line style="stroke:#181818;stroke-width:1.0;" x1="514" x2="514" y1="54.6094" y2="762.1094"/><text fill="#000000" font-family="sans-serif" font-size="14" font-weight="bold" lengthAdjust="spacing" textLength="106" x="213" y="72.1426">N&#243; Kubernetes</text></g><!--cluster Pod payment-api--><g id="cluster_Pod payment-api"><path d="M42.5,93.6094 L159.5,93.6094 A3.75,3.75 0 0 1 162,96.1094 L169,117.2188 L255.5,117.2188 A2.5,2.5 0 0 1 258,119.7188 L258,498.6094 A2.5,2.5 0 0 1 255.5,501.1094 L42.5,501.1094 A2.5,2.5 0 0 1 40,498.6094 L40,96.1094 A2.5,2.5 0 0 1 42.5,93.6094 " fill="none" style="stroke:#000000;stroke-width:1.5;"/><line style="stroke:#000000;stroke-width:1.5;" x1="40" x2="169" y1="117.2188" y2="117.2188"/><text fill="#000000" font-family="sans-serif" font-size="14" font-weight="bold" lengthAdjust="spacing" textLength="116" x="44" y="110.1426">Pod payment-api</text></g><!--cluster Pod payment-cache--><g id="cluster_Pod payment-cache"><path d="M284.5,394.1094 L422.5,394.1094 A3.75,3.75 0 0 1 425,396.6094 L432,417.7188 L497.5,417.7188 A2.5,2.5 0 0 1 500,420.2188 L500,735.6094 A2.5,2.5 0 0 1 497.5,738.1094 L284.5,738.1094 A2.5,2.5 0 0 1 282,735.6094 L282,396.6094 A2.5,2.5 0 0 1 284.5,394.1094 " fill="none" style="stroke:#000000;stroke-width:1.5;"/><line style="stroke:#000000;stroke-width:1.5;" x1="282" x2="432" y1="417.7188" y2="417.7188"/><text fill="#000000" font-family="sans-serif" font-size="14" font-weight="bold" lengthAdjust="spacing" textLength="137" x="286" y="410.6426">Pod payment-cache</text></g><!--entity istiod--><g id="elem_istiod"><rect fill="#F1F1F1" height="37.6094" rx="2.5" ry="2.5" style="stroke:#181818;stroke-width:0.5;" width="53" x="564.5" y="283.6094"/><text fill="#000000" font-family="sans-serif" font-size="14" lengthAdjust="spacing" textLength="33" x="574.5" y="308.1426">istiod</text></g><!--entity app1--><g id="elem_app1"><rect fill="#F1F1F1" height="37.6094" rx="2.5" ry="2.5" style="stroke:#181818;stroke-width:0.5;" width="127" x="84.5" y="129.6094"/><text fill="#000000" font-family="sans-serif" font-size="14" lengthAdjust="spacing" textLength="107" x="94.5" y="154.1426">App payment-api</text></g><!--entity sidecar1--><g id="elem_sidecar1"><rect fill="#F1F1F1" height="55.2188" rx="2.5" ry="2.5" style="stroke:#181818;stroke-width:0.5;" width="109" x="132.5" y="430.1094"/><text fill="#000000" font-family="sans-serif" font-size="14" lengthAdjust="spacing" textLength="89" x="142.5" y="454.6426">Envoy sidecar</text><text fill="#000000" font-family="sans-serif" font-size="14" lengthAdjust="spacing" textLength="74" x="142.5" y="472.252">(istio-proxy)</text></g><!--entity ipt1--><g id="elem_ipt1"><rect fill="#F1F1F1" height="55.2188" rx="2.5" ry="2.5" style="stroke:#181818;stroke-width:0.5;" width="185" x="56.5" y="275.1094"/><text fill="#000000" font-family="sans-serif" font-size="14" lengthAdjust="spacing" textLength="49" x="66.5" y="299.6426">iptables</text><text fill="#000000" font-family="sans-serif" font-size="14" lengthAdjust="spacing" textLength="165" x="66.5" y="317.252">(istio-init, roda 1x no start)</text></g><!--entity app2--><g id="elem_app2"><rect fill="#F1F1F1" height="37.6094" rx="2.5" ry="2.5" style="stroke:#181818;stroke-width:0.5;" width="146" x="318" y="684.1094"/><text fill="#000000" font-family="sans-serif" font-size="14" lengthAdjust="spacing" textLength="126" x="328" y="708.6426">App payment-cache</text></g><!--entity sidecar2--><g id="elem_sidecar2"><rect fill="#F1F1F1" height="55.2188" rx="2.5" ry="2.5" style="stroke:#181818;stroke-width:0.5;" width="109" x="367.5" y="430.1094"/><text fill="#000000" font-family="sans-serif" font-size="14" lengthAdjust="spacing" textLength="89" x="377.5" y="454.6426">Envoy sidecar</text><text fill="#000000" font-family="sans-serif" font-size="14" lengthAdjust="spacing" textLength="74" x="377.5" y="472.252">(istio-proxy)</text></g><!--entity ipt2--><g id="elem_ipt2"><rect fill="#F1F1F1" height="55.2188" rx="2.5" ry="2.5" style="stroke:#181818;stroke-width:0.5;" width="185" x="298.5" y="558.1094"/><text fill="#000000" font-family="sans-serif" font-size="14" lengthAdjust="spacing" textLength="49" x="308.5" y="582.6426">iptables</text><text fill="#000000" font-family="sans-serif" font-size="14" lengthAdjust="spacing" textLength="165" x="308.5" y="600.252">(istio-init, roda 1x no start)</text></g><g id="elem_GMN20"><path d="M540.5,548.1094 L540.5,623.5156 L777.5,623.5156 L777.5,558.1094 L767.5,548.1094 L540.5,548.1094 " fill="#FEFFDD" style="stroke:#181818;stroke-width:0.5;"/><path d="M767.5,548.1094 L767.5,558.1094 L777.5,558.1094 L767.5,548.1094 " fill="#FEFFDD" style="stroke:#181818;stroke-width:1.0;"/><text fill="#000000" font-family="sans-serif" font-size="13" lengthAdjust="spacing" textLength="216" x="546.5" y="566.6045">1 processo Envoy completo (L4 + L7)</text><text fill="#000000" font-family="sans-serif" font-size="13" lengthAdjust="spacing" textLength="207" x="546.5" y="582.9561">por Pod &#8212; mesmo que o servi&#231;o s&#243;</text><text fill="#000000" font-family="sans-serif" font-size="13" lengthAdjust="spacing" textLength="202" x="546.5" y="599.3076">precise de mTLS, ele paga o custo</text><text fill="#000000" font-family="sans-serif" font-size="13" lengthAdjust="spacing" textLength="133" x="546.5" y="615.6592">de um proxy L7 inteiro.</text></g><!--link app1 to ipt1--><g id="link_app1_ipt1"><path d="M148.12,167.6394 C148.29,194.2194 148.5811,238.0895 148.7811,268.9195 " fill="none" id="app1-to-ipt1" style="stroke:#181818;stroke-width:1.0;"/><polygon fill="#181818" points="148.82,274.9194,152.7615,265.8936,148.7876,269.9195,144.7617,265.9455,148.82,274.9194" style="stroke:#181818;stroke-width:1.0;"/><text fill="#000000" font-family="sans-serif" font-size="13" lengthAdjust="spacing" textLength="92" x="150" y="212.1045">tr&#225;fego de sa&#237;da</text><text fill="#000000" font-family="sans-serif" font-size="13" lengthAdjust="spacing" textLength="77" x="157.5" y="228.4561">redirecionado</text></g><!--link ipt1 to sidecar1--><g id="link_ipt1_sidecar1"><path d="M155.62,330.2594 C162.57,358.2594 171.9936,396.2063 178.9436,424.1863 " fill="none" id="ipt1-to-sidecar1" style="stroke:#181818;stroke-width:1.0;"/><polygon fill="#181818" points="180.39,430.0094,182.1024,420.3105,179.1847,425.1568,174.3384,422.2391,180.39,430.0094" style="stroke:#181818;stroke-width:1.0;"/></g><!--link sidecar1 to sidecar2--><g id="link_sidecar1_sidecar2"><path d="M241.5,457.6094 C279.33,457.6094 323.53,457.6094 361.38,457.6094 " fill="none" id="sidecar1-to-sidecar2" style="stroke:#181818;stroke-width:1.0;"/><polygon fill="#181818" points="367.38,457.6094,358.38,453.6094,362.38,457.6094,358.38,461.6094,367.38,457.6094" style="stroke:#181818;stroke-width:1.0;"/><text fill="#000000" font-family="sans-serif" font-size="13" lengthAdjust="spacing" textLength="89" x="260" y="451.1045">mTLS (HTTP/2)</text></g><!--link sidecar2 to ipt2--><g id="link_sidecar2_ipt2"><path d="M415.43,485.3294 C410.16,506.7094 404.2534,530.7231 398.9934,552.1031 " fill="none" id="sidecar2-to-ipt2" style="stroke:#181818;stroke-width:1.0;"/><polygon fill="#181818" points="397.56,557.9294,403.5943,550.1456,398.7545,553.0742,395.8259,548.2344,397.56,557.9294" style="stroke:#181818;stroke-width:1.0;"/></g><!--link ipt2 to app2--><g id="link_ipt2_app2"><path d="M391,613.3994 C391,635.1194 391,659.1494 391,678.0894 " fill="none" id="ipt2-to-app2" style="stroke:#181818;stroke-width:1.0;"/><polygon fill="#181818" points="391,684.0894,395,675.0894,391,679.0894,387,675.0894,391,684.0894" style="stroke:#181818;stroke-width:1.0;"/></g><!--link istiod to sidecar1--><g id="link_istiod_sidecar1"><path d="M564.3,306.6194 C508.85,313.7194 378.36,334.9394 282,386.1094 C259.14,398.2494 240.4388,411.7508 222.5988,426.1508 " fill="none" id="istiod-to-sidecar1" style="stroke:#181818;stroke-width:1.0;stroke-dasharray:7.0,7.0;"/><polygon fill="#181818" points="217.93,429.9194,227.4456,427.3791,221.8207,426.7789,222.4209,421.154,217.93,429.9194" style="stroke:#181818;stroke-width:1.0;"/><text fill="#000000" font-family="sans-serif" font-size="13" lengthAdjust="spacing" textLength="145" x="338" y="374.6045">xDS (config, certificados)</text></g><!--link istiod to sidecar2--><g id="link_istiod_sidecar2"><path d="M570.95,321.7594 C541.31,348.5994 490.0678,394.9823 455.8178,425.9923 " fill="none" id="istiod-to-sidecar2" style="stroke:#181818;stroke-width:1.0;stroke-dasharray:7.0,7.0;"/><polygon fill="#181818" points="451.37,430.0194,460.7264,426.944,455.0765,426.6635,455.357,421.0136,451.37,430.0194" style="stroke:#181818;stroke-width:1.0;"/><text fill="#000000" font-family="sans-serif" font-size="13" lengthAdjust="spacing" textLength="145" x="527" y="374.6045">xDS (config, certificados)</text></g><!--link sidecar1 to GMN20--><g id="link_sidecar1_GMN20"><path d="M230.17,485.2194 C245.99,493.9694 264.35,503.0094 282,509.1094 C375.03,541.2694 403.56,528.4294 500,548.1094 C513.04,550.7694 526.66,553.6894 540.19,556.6694 " fill="none" id="sidecar1-GMN20" style="stroke:#181818;stroke-width:1.0;stroke-dasharray:7.0,7.0;"/></g><!--SRC=[dLDBZXCn4Dtx5AMi4f44fOM4n09fD22122XIicDOE7QbnvfkbyUk7XAXaJW45s35YjKSeM_2IIXtvxSOa63dzdlrwlMhCZkk4DucTWHBPz7e2E_98lpw-WqkuctZ6Bc9MgbqutpGKTTWg0xaqVEITr8SqR3sPOLdbBKsDsManjjBgYW2H-sJG5AaL11GbmY3I_8SgO95fJt2q6KNaxHBZFLe05yKmCVkpdu2dQ0_gdkbV3Ou-D0-mBjcZT4ZO-hvH-a5MVdOrT9meeFhKT6x2E7ylXFM8SnwzBM_ensaFeShltSK8crteuwwX_Pq5rYlAqn7flEEnn39QfXjmHCarf7xKY7dili_kJJQNEEZFZlauBJuDwV5_pajEgSITSu69fO- -ydBxXVWXGop_Rx1aa2ca7Jxq-eh7z4wMGH7NbjI7V5GTSpiS819TEKrdw12HElLV0d3DwlLucanKaVWh7MHPKytNHQgNmgOJazzH6pxIhGC-Oqhns0mijiu8yRIw962uky5icsCi2Pcge4svoim0mdSO4e4_JpoowYG2ORpP_04viz7UTgo_tdG-KNLc6g2smP14iTuvzeVScWVCYt7bp27chCO0yhR2hhKGZLDOXAEO4qDtPH579ndT96c2hs5R5Fz1W00]--></g></svg>