<?xml version="1.0" encoding="us-ascii" standalone="no"?><svg xmlns="http://www.w3.org/2000/svg" xmlns:xlink="http://www.w3.org/1999/xlink" contentStyleType="text/css" height="534px" preserveAspectRatio="none" style="width:648px;height:534px;background:#FFFFFF;" version="1.1" viewBox="0 0 648 534" width="648px" zoomAndPan="magnify"><defs/><g><text fill="#000000" font-family="sans-serif" font-size="14" font-weight="bold" lengthAdjust="spacing" textLength="258.4375" x="194.0313" y="29.5332">Fluxo de requisi&#231;&#227;o &#8212; Modo Sidecar</text><rect fill="#FFFFFF" height="122.7578" style="stroke:#181818;stroke-width:1.0;" width="10" x="190" y="142.5313"/><rect fill="#FFFFFF" height="167.1094" style="stroke:#181818;stroke-width:1.0;" width="10" x="394" y="265.2891"/><rect fill="#FFFFFF" height="30.3516" style="stroke:#181818;stroke-width:1.0;" width="10" x="582" y="371.6953"/><line style="stroke:#181818;stroke-width:0.5;stroke-dasharray:5.0,5.0;" x1="51" x2="51" y1="93.8281" y2="480.75"/><line style="stroke:#181818;stroke-width:0.5;stroke-dasharray:5.0,5.0;" x1="194.5" x2="194.5" y1="93.8281" y2="480.75"/><line style="stroke:#181818;stroke-width:0.5;stroke-dasharray:5.0,5.0;" x1="398.5" x2="398.5" y1="93.8281" y2="480.75"/><line style="stroke:#181818;stroke-width:0.5;stroke-dasharray:5.0,5.0;" x1="586.5" x2="586.5" y1="93.8281" y2="480.75"/><rect fill="#E2E2F0" height="49.2188" rx="2.5" ry="2.5" style="stroke:#181818;stroke-width:0.5;" width="92" x="5" y="43.6094"/><text fill="#000000" font-family="sans-serif" font-size="14" lengthAdjust="spacing" textLength="78" x="12" y="65.1426">payment-api</text><text fill="#000000" font-family="sans-serif" font-size="14" lengthAdjust="spacing" textLength="34" x="34" y="82.752">(app)</text><rect fill="#E2E2F0" height="49.2188" rx="2.5" ry="2.5" style="stroke:#181818;stroke-width:0.5;" width="92" x="5" y="479.75"/><text fill="#000000" font-family="sans-serif" font-size="14" lengthAdjust="spacing" textLength="78" x="12" y="501.2832">payment-api</text><text fill="#000000" font-family="sans-serif" font-size="14" lengthAdjust="spacing" textLength="34" x="34" y="518.8926">(app)</text><rect fill="#E2E2F0" height="49.2188" rx="2.5" ry="2.5" style="stroke:#181818;stroke-width:0.5;" width="103" x="143.5" y="43.6094"/><text fill="#000000" font-family="sans-serif" font-size="14" lengthAdjust="spacing" textLength="89" x="150.5" y="65.1426">Envoy sidecar</text><text fill="#000000" font-family="sans-serif" font-size="14" lengthAdjust="spacing" textLength="88" x="151" y="82.752">(payment-api)</text><rect fill="#E2E2F0" height="49.2188" rx="2.5" ry="2.5" style="stroke:#181818;stroke-width:0.5;" width="103" x="143.5" y="479.75"/><text fill="#000000" font-family="sans-serif" font-size="14" lengthAdjust="spacing" textLength="89" x="150.5" y="501.2832">Envoy sidecar</text><text fill="#000000" font-family="sans-serif" font-size="14" lengthAdjust="spacing" textLength="88" x="151" y="518.8926">(payment-api)</text><rect fill="#E2E2F0" height="49.2188" rx="2.5" ry="2.5" style="stroke:#181818;stroke-width:0.5;" width="121" x="338.5" y="43.6094"/><text fill="#000000" font-family="sans-serif" font-size="14" lengthAdjust="spacing" textLength="89" x="354.5" y="65.1426">Envoy sidecar</text><text fill="#000000" font-family="sans-serif" font-size="14" lengthAdjust="spacing" textLength="107" x="345.5" y="82.752">(payment-cache)</text><rect fill="#E2E2F0" height="49.2188" rx="2.5" ry="2.5" style="stroke:#181818;stroke-width:0.5;" width="121" x="338.5" y="479.75"/><text fill="#000000" font-family="sans-serif" font-size="14" lengthAdjust="spacing" textLength="89" x="354.5" y="501.2832">Envoy sidecar</text><text fill="#000000" font-family="sans-serif" font-size="14" lengthAdjust="spacing" textLength="107" x="345.5" y="518.8926">(payment-cache)</text><rect fill="#E2E2F0" height="49.2188" rx="2.5" ry="2.5" style="stroke:#181818;stroke-width:0.5;" width="111" x="531.5" y="43.6094"/><text fill="#000000" font-family="sans-serif" font-size="14" lengthAdjust="spacing" textLength="97" x="538.5" y="65.1426">payment-cache</text><text fill="#000000" font-family="sans-serif" font-size="14" lengthAdjust="spacing" textLength="34" x="570" y="82.752">(app)</text><rect fill="#E2E2F0" height="49.2188" rx="2.5" ry="2.5" style="stroke:#181818;stroke-width:0.5;" width="111" x="531.5" y="479.75"/><text fill="#000000" font-family="sans-serif" font-size="14" lengthAdjust="spacing" textLength="97" x="538.5" y="501.2832">payment-cache</text><text fill="#000000" font-family="sans-serif" font-size="14" lengthAdjust="spacing" textLength="34" x="570" y="518.8926">(app)</text><rect fill="#FFFFFF" height="122.7578" style="stroke:#181818;stroke-width:1.0;" width="10" x="190" y="142.5313"/><rect fill="#FFFFFF" height="167.1094" style="stroke:#181818;stroke-width:1.0;" width="10" x="394" y="265.2891"/><rect fill="#FFFFFF" height="30.3516" style="stroke:#181818;stroke-width:1.0;" width="10" x="582" y="371.6953"/><polygon fill="#181818" points="178,138.5313,188,142.5313,178,146.5313,182,142.5313" style="stroke:#181818;stroke-width:1.0;"/><line style="stroke:#181818;stroke-width:1.0;" x1="51" x2="184" y1="142.5313" y2="142.5313"/><text fill="#000000" font-family="sans-serif" font-size="13" lengthAdjust="spacing" textLength="109" x="58" y="121.3232">GET /get-card-limit</text><text fill="#000000" font-family="sans-serif" font-size="13" lengthAdjust="spacing" textLength="120" x="58" y="137.6748">(iptables redireciona)</text><line style="stroke:#181818;stroke-width:1.0;" x1="200" x2="242" y1="205.5859" y2="205.5859"/><line style="stroke:#181818;stroke-width:1.0;" x1="242" x2="242" y1="205.5859" y2="218.5859"/><line style="stroke:#181818;stroke-width:1.0;" x1="201" x2="242" y1="218.5859" y2="218.5859"/><polygon fill="#181818" points="211,214.5859,201,218.5859,211,222.5859,207,218.5859" style="stroke:#181818;stroke-width:1.0;"/><text fill="#000000" font-family="sans-serif" font-size="13" lengthAdjust="spacing" textLength="129" x="207" y="168.0264">aplica retries, timeout,</text><text fill="#000000" font-family="sans-serif" font-size="13" lengthAdjust="spacing" textLength="82" x="207" y="184.3779">circuit breaker</text><text fill="#000000" font-family="sans-serif" font-size="13" lengthAdjust="spacing" textLength="99" x="207" y="200.7295">(DestinationRule)</text><polygon fill="#181818" points="382,261.2891,392,265.2891,382,269.2891,386,265.2891" style="stroke:#181818;stroke-width:1.0;"/><line style="stroke:#181818;stroke-width:1.0;" x1="195" x2="388" y1="265.2891" y2="265.2891"/><text fill="#000000" font-family="sans-serif" font-size="13" lengthAdjust="spacing" textLength="34" x="202" y="244.0811">mTLS</text><text fill="#000000" font-family="sans-serif" font-size="13" lengthAdjust="spacing" textLength="175" x="202" y="260.4326">(identidade SPIFFE do Pod A)</text><line style="stroke:#181818;stroke-width:1.0;" x1="404" x2="446" y1="311.9922" y2="311.9922"/><line style="stroke:#181818;stroke-width:1.0;" x1="446" x2="446" y1="311.9922" y2="324.9922"/><line style="stroke:#181818;stroke-width:1.0;" x1="405" x2="446" y1="324.9922" y2="324.9922"/><polygon fill="#181818" points="415,320.9922,405,324.9922,415,328.9922,411,324.9922" style="stroke:#181818;stroke-width:1.0;"/><text fill="#000000" font-family="sans-serif" font-size="13" lengthAdjust="spacing" textLength="112" x="411" y="290.7842">AuthorizationPolicy</text><text fill="#000000" font-family="sans-serif" font-size="13" lengthAdjust="spacing" textLength="164" x="411" y="307.1357">(valida identidade de origem)</text><polygon fill="#181818" points="570,367.6953,580,371.6953,570,375.6953,574,371.6953" style="stroke:#181818;stroke-width:1.0;"/><line style="stroke:#181818;stroke-width:1.0;" x1="404" x2="576" y1="371.6953" y2="371.6953"/><text fill="#000000" font-family="sans-serif" font-size="13" lengthAdjust="spacing" textLength="117" x="411" y="350.4873">encaminha em claro</text><text fill="#000000" font-family="sans-serif" font-size="13" lengthAdjust="spacing" textLength="149" x="411" y="366.8389">(localhost, dentro do Pod)</text><polygon fill="#181818" points="415,398.0469,405,402.0469,415,406.0469,411,402.0469" style="stroke:#181818;stroke-width:1.0;"/><line style="stroke:#181818;stroke-width:1.0;stroke-dasharray:2.0,2.0;" x1="409" x2="586" y1="402.0469" y2="402.0469"/><text fill="#000000" font-family="sans-serif" font-size="13" lengthAdjust="spacing" textLength="50" x="421" y="397.1904">resposta</text><polygon fill="#181818" points="206,428.3984,196,432.3984,206,436.3984,202,432.3984" style="stroke:#181818;stroke-width:1.0;"/><line style="stroke:#181818;stroke-width:1.0;stroke-dasharray:2.0,2.0;" x1="200" x2="398" y1="432.3984" y2="432.3984"/><text fill="#000000" font-family="sans-serif" font-size="13" lengthAdjust="spacing" textLength="34" x="212" y="427.542">mTLS</text><polygon fill="#181818" points="62,458.75,52,462.75,62,466.75,58,462.75" style="stroke:#181818;stroke-width:1.0;"/><line style="stroke:#181818;stroke-width:1.0;stroke-dasharray:2.0,2.0;" x1="56" x2="194" y1="462.75" y2="462.75"/><text fill="#000000" font-family="sans-serif" font-size="13" lengthAdjust="spacing" textLength="50" x="68" y="457.8936">resposta</text><!--SRC=[ZP31IiD048RlUOgX9mCjtZq82ROYA1JJOo_JtQ4TtEokcqcnddm8ty233z8tyKcSj0rDmOEGmqB-_vjlHbWSmSorRm4iGQBNbXlUV- -_0lnyVC9Ji04gjcGmPLd496mueXSOHTpLv6M2aPV-2cFCHu0D59UfgT-67JH7WkO6hME- -cV1eDdGgLB-RNA835tAB2jWSgipu0RkfmkuNbCNItRYk6RHB4V1bQD6LxUSo73mc6TeXBSerDbLPmH6nmOrAecf6ODmJQ6LyT8RJgPbWLKYVA7E-uuQOO-YmEVMKTvpIkNKYyUgcstLcYtguQlvmsms1JtsF5WeyipIqE7yBZCbz9oYbKr8_7wOCWygjrFi5fr2OK3NJsDhglDJkokJDrYpto1G3SPX2jfrmQ3RX4R6qDLJE2aDJb9cYkWD4ZLHqpZqFIhsD-jslTYcF5n2VnU3_Yy0]--></g></svg>